' delete-subject-class.puml
@startuml
skinparam linetype ortho
skinparam ranksep 50
skinparam nodesep 50
skinparam classAttributeIconSize 0
hide empty members

package "API Layer" {
    class SubjectsController {
        +DeleteSubject(id)
    }
}

package "Application Layer" {
    class DeleteSubjectCommand {
        +Id
    }

    class DeleteSubjectHandler {
        +Handle(command)
    }
}

package "Domain & Infrastructure Layer" {
    interface ISubjectRepository
}

SubjectsController ..> DeleteSubjectCommand : Creates
SubjectsController ..> DeleteSubjectHandler : Sends

DeleteSubjectHandler ..> DeleteSubjectCommand : Uses
DeleteSubjectHandler --> ISubjectRepository
@enduml