' remove-skill-mapping-class.puml
@startuml
skinparam linetype ortho
skinparam ranksep 50
skinparam nodesep 50
skinparam classAttributeIconSize 0
hide empty members

package "API Layer" {
    class SubjectsController {
        +RemoveSkillMapping(subjectId, skillId)
    }
}

package "Application Layer" {
    class RemoveSubjectSkillMappingCommand {
        +SubjectId
        +SkillId
    }

    class RemoveSubjectSkillMappingHandler {
        +Handle(command)
    }
}

package "Domain & Infrastructure Layer" {
    interface ISubjectSkillMappingRepository
}

SubjectsController ..> RemoveSubjectSkillMappingCommand : Creates
SubjectsController ..> RemoveSubjectSkillMappingHandler : Sends

RemoveSubjectSkillMappingHandler ..> RemoveSubjectSkillMappingCommand : Uses
RemoveSubjectSkillMappingHandler --> ISubjectSkillMappingRepository
@enduml