' create-program-class.puml
@startuml
skinparam linetype ortho
skinparam ranksep 50
skinparam nodesep 50
skinparam classAttributeIconSize 0
hide empty members

package "API Layer" {
    class CurriculumProgramsController {
        +Create(command)
    }
}

package "Application Layer" {
    class CreateCurriculumProgramCommand {
        +ProgramName
        +ProgramCode
        +DegreeLevel
    }

    class CreateCurriculumProgramCommandHandler {
        +Handle(command)
    }
}

package "Domain & Infrastructure Layer" {
    interface ICurriculumProgramRepository
    class CurriculumProgram
}

CurriculumProgramsController ..> CreateCurriculumProgramCommand : Creates
CurriculumProgramsController ..> CreateCurriculumProgramCommandHandler : Sends

CreateCurriculumProgramCommandHandler ..> CreateCurriculumProgramCommand : Uses
CreateCurriculumProgramCommandHandler --> ICurriculumProgramRepository
CreateCurriculumProgramCommandHandler ..> CurriculumProgram : Creates
@enduml